# xmcd
#
# Track frame offsets: 
#        150
#        17222
#        33457
#        52775
#        69037
#        85477
#        108082
#        126150
#        142475
#        157780
#        174175
#        190802
#        205852
#        220962
#        237192
#
# Disc length: 3382 seconds
#
# Revision: 2
# Processed by: cddbd v1.5.2PL0 Copyright (c) Steve Scherf et al.
# Submitted via: ExactAudioCopy v1.0b3
#
DISCID=c60d340f
DTITLE=Amanda Perez - I Pray
DYEAR=2004
DGENRE=Soul
TTITLE0=I Prey (Never Forget)
TTITLE1=Need Your Love
TTITLE2=Take My Love
TTITLE3=Angel (Acoustic GTR Version)
TTITLE4=Fire
TTITLE5=Make Me feel
TTITLE6=Dedicate
TTITLE7=Calling You
TTITLE8=I Need You
TTITLE9=Angel
TTITLE10=Ho
TTITLE11=How You Luv Dat
TTITLE12=Already
TTITLE13=Hell No
TTITLE14=Get It Girl
EXTD=
EXTT0=
EXTT1=
EXTT2=
EXTT3=
EXTT4=
EXTT5=
EXTT6=
EXTT7=
EXTT8=
EXTT9=
EXTT10=
EXTT11=
EXTT12=
EXTT13=
EXTT14=
PLAYORDER=
